<svg id="Layer_1" data-name="Layer 1" xmlns="http://www.w3.org/2000/svg" viewBox="0 0 296.52 59.3"><path d="M151.2,35.7a11.31,11.31,0,0,1-3.3,8.3c-2.9,2.9-7.6,4.5-13.3,4.4-4.1-.1-8.2-1.1-10.5-2.5l1.5-8.2a23.67,23.67,0,0,0,10,2.8c2.7,0,4.4-1.2,4.4-3.2,0-1.8-1.3-3-4.5-4.6-5.1-2.5-7.6-5.7-7.6-9.5,0-7.4,6.4-12.5,15.9-12.5,5,0,8.3,1.2,10.1,2.4l-1.5,8.1a16.69,16.69,0,0,0-9.1-2.6c-2.8,0-4.6,1.2-4.6,3.1,0,1.4,1.4,2.6,4.3,4.1,3.9,2,8.2,4.9,8.2,9.9Zm145.3,7.6a4,4,0,0,0-4.1-4.5,5,5,0,0,0-4.9,4.5,4,4,0,0,0,4.1,4.5A5,5,0,0,0,296.5,43.3Zm-.6,0a4.42,4.42,0,0,1-4.3,3.9,3.37,3.37,0,0,1-3.4-3.8,4.42,4.42,0,0,1,4.3-3.9A3.48,3.48,0,0,1,295.9,43.3Zm-3.1.6.7,2.1h-.7l-.7-2h-1l-.4,2H290l1-5.3h1.7a1.35,1.35,0,0,1,1.4,1.3A1.87,1.87,0,0,1,292.8,43.9Zm0-2.6h-1.2l-.4,2h1.1a1.28,1.28,0,0,0,1.2-1.1A.74.74,0,0,0,292.8,41.3Zm-19.5-1.2a24.26,24.26,0,0,0,12.6-3.5l-1.7,9c-5.1,2.6-11.1,2.9-13.4,2.9-10,0-15.6-5.5-15.6-15.2A24,24,0,0,1,260.8,18a20.23,20.23,0,0,1,15.4-7.1c7.5,0,12.6,4.4,12.6,10.9a10.1,10.1,0,0,1-2.9,7.4c-3.6,3.5-12.5,5.5-20.5,3.9C264.9,37.5,268.3,40.1,273.3,40.1ZM266.4,26c6.3.1,9.8-.6,11.4-2.1,1.7-1.7,1.1-5.2-3-5.2C270.2,18.7,267.2,22.5,266.4,26Zm-42,1.5-3.9,20.2H210.3l1.3-7a10.78,10.78,0,0,1-10.8,7.8c-7.1,0-10.3-6.3-10.3-12.6a27.27,27.27,0,0,1,7.5-19,20.47,20.47,0,0,1,14.8-6.1c10.1.1,13.4,6.9,11.6,16.7Zm-9.9-4.6c-.1-2.5-1.5-3.9-3.8-3.9-5,0-9.4,8.7-9.4,14.7,0,3.8,1.4,6.1,3.8,6.1,3.9,0,7.3-4.1,8.4-10A30.23,30.23,0,0,0,214.5,22.9ZM59.9,27.5,56,47.7H45.8l1.3-7a10.78,10.78,0,0,1-10.8,7.8C29.2,48.5,26,42.2,26,35.9a27.27,27.27,0,0,1,7.5-19,20.47,20.47,0,0,1,14.8-6.1C58.4,10.9,61.8,17.7,59.9,27.5Zm-9.8-4.6C50,20.4,48.6,19,46.3,19c-5,0-9.4,8.7-9.4,14.7,0,3.8,1.4,6.1,3.8,6.1,3.9,0,7.3-4.1,8.4-10A47.82,47.82,0,0,0,50.1,22.9Zm139.7,1.7c0,8.8-4.2,17.8-11.8,21.8a16.64,16.64,0,0,1-7.8,2.1c-3.8,0-5.9-1.4-7.1-3.6l-2.7,14.4H149.7l9.1-47.8h9.4l-1.1,5.8c2.7-3.9,6.6-6.5,11.1-6.5C185.2,10.8,189.8,16.2,189.8,24.6Zm-11.1.8c0-1.7-.4-5.8-4.3-5.8S167,24.1,165.7,31c-.5,2.4-1.7,9.4,3.2,9.4C174.5,40.4,178.7,32.4,178.7,25.4ZM14.9,19.5l1.5-8H7L0,48.4H10.7l2.9-15.2c1.7-9,6.8-12.6,14.2-11.4l2.1-11A14.72,14.72,0,0,0,14.9,19.5Zm85.9,28.2,3.7-19.4,7.6,19.4h11.5l-7.9-19.5L130,11.5H118.3L104.5,28l5.3-28H99.2L90.1,47.8h10.7ZM249.7,10.9c-13.4,0-23.5,9.8-23.5,22.8,0,9,6,14.8,15.2,14.8a25.25,25.25,0,0,0,10.3-1.9l1.7-9a19.41,19.41,0,0,1-9,2.3c-3.4,0-7-1.9-7-7.4,0-6.4,4.5-13,12.2-13a12.25,12.25,0,0,1,5.9,1.4l1.7-8.7A21.38,21.38,0,0,0,249.7,10.9Zm-164.5,0c-13.4,0-23.5,9.8-23.5,22.8,0,9,6,14.8,15.2,14.8a25.25,25.25,0,0,0,10.3-1.9l1.7-9a19.41,19.41,0,0,1-9,2.3c-3.4,0-7-1.9-7-7.4,0-6.4,4.5-13,12.2-13A12.25,12.25,0,0,1,91,20.9l1.7-8.7A21.38,21.38,0,0,0,85.2,10.9Z" transform="translate(0 0)"/></svg>