<svg id="Layer_1" data-name="Layer 1" xmlns="http://www.w3.org/2000/svg" viewBox="0 0 174.65 44.07"><defs><style>.cls-1{fill:#231f20;}.cls-2{fill:#62bb46;}</style></defs><path class="cls-1" d="M-302.44,170.74a1.72,1.72,0,0,0-1.87-1.26h-.83a1.58,1.58,0,0,0-1.7,1.05l-4.49,11.78a4.5,4.5,0,0,0-.34,1.32,1.47,1.47,0,0,0,1.61,1.51,1.4,1.4,0,0,0,1.55-.94l.91-2.52h5.6l.89,2.52a1.5,1.5,0,0,0,1.57.94,1.59,1.59,0,0,0,1.64-1.51,4.84,4.84,0,0,0-.34-1.32Zm-4.4,8.54,2.06-6.07h0l2,6.07Z" transform="translate(379.79 -161.5)"/><path class="cls-1" d="M-293.11,185.14a4.47,4.47,0,0,0,3.76-1.93h0v.4c0,.92.42,1.53,1.4,1.53s1.4-.61,1.4-1.53v-8.46a1.37,1.37,0,0,0-1.55-1.54,1.37,1.37,0,0,0-1.55,1.54v5.06a2.39,2.39,0,0,1-2.35,2.41,1.86,1.86,0,0,1-2-2.12v-5.35a1.36,1.36,0,0,0-1.54-1.54,1.37,1.37,0,0,0-1.55,1.54v6c0,3.11,2,4,3.9,4" transform="translate(379.79 -161.5)"/><path class="cls-1" d="M-280.06,183c-2.29,0-2.42-1.89-3.76-1.89a1.18,1.18,0,0,0-1.25,1.28c0,1.51,2.34,2.75,5.14,2.75,2.33,0,4.77-1.15,4.77-3.65,0-2.14-2.1-2.88-3.86-3.28l-1.29-.29c-1-.21-1.66-.38-1.66-1.1s.7-.94,1.78-.94c1.95,0,2,1.41,3.21,1.41a1.28,1.28,0,0,0,1.29-1.35c0-1.4-2.38-2.33-4.73-2.33-2.14,0-4.65.93-4.65,3.43,0,2.05,1.4,2.79,3.21,3.23l1.82.44c1.1.27,1.78.4,1.78,1.18s-.7,1.11-1.8,1.11" transform="translate(379.79 -161.5)"/><path class="cls-1" d="M-269.2,183c-2.29,0-2.42-1.89-3.75-1.89a1.18,1.18,0,0,0-1.25,1.28c0,1.51,2.33,2.75,5.13,2.75,2.33,0,4.77-1.15,4.77-3.65,0-2.14-2.1-2.88-3.86-3.28l-1.29-.29c-.95-.21-1.66-.38-1.66-1.1s.71-.94,1.79-.94c1.95,0,2,1.41,3.2,1.41a1.28,1.28,0,0,0,1.29-1.35c0-1.4-2.37-2.33-4.73-2.33-2.14,0-4.64.93-4.64,3.43,0,2.05,1.4,2.79,3.2,3.23l1.82.44c1.11.27,1.79.4,1.79,1.18s-.7,1.11-1.81,1.11" transform="translate(379.79 -161.5)"/><path class="cls-1" d="M-261.13,172.58a1.6,1.6,0,0,0,1.61-1.59,1.6,1.6,0,0,0-1.61-1.6,1.6,1.6,0,0,0-1.62,1.6,1.6,1.6,0,0,0,1.62,1.59" transform="translate(379.79 -161.5)"/><path class="cls-1" d="M-262.68,175.14v8.47a1.37,1.37,0,0,0,1.55,1.53,1.36,1.36,0,0,0,1.54-1.53v-8.47a1.36,1.36,0,0,0-1.54-1.53,1.37,1.37,0,0,0-1.55,1.53" transform="translate(379.79 -161.5)"/><path class="cls-1" d="M-252,185.14c1.87,0,4.86-.86,4.86-2.71a1.28,1.28,0,0,0-1.27-1.2c-1.26,0-1.26,1.52-3.59,1.52a2.66,2.66,0,0,1-2.86-2.8h7c1,0,1.36-.27,1.36-1.32,0-2.52-2-5-5.6-5s-5.86,2.4-5.86,6c0,2.66,1.63,5.56,6,5.56m0-9.39a2.64,2.64,0,0,1,2.61,2.44h-5.43a2.78,2.78,0,0,1,2.82-2.44" transform="translate(379.79 -161.5)"/><path class="cls-1" d="M-301.58,194.82v0a3.22,3.22,0,0,0,2.15-3.07c0-3.33-3-3.9-5.58-3.9h-4.63c-1.23,0-2,.48-2,2v11.09c0,1.54.8,2,2,2h5.12c3,0,5.62-1.3,5.62-4.47a3.4,3.4,0,0,0-2.68-3.64m-6.61-4.49h2.75c1.3,0,2.53.4,2.53,1.85,0,1.19-.79,1.84-2.42,1.84h-2.86Zm2.92,9.95h-2.92v-4.07h2.5c1.7,0,3.31.23,3.31,2.06s-1.53,2-2.89,2" transform="translate(379.79 -161.5)"/><path class="cls-1" d="M-291.79,191.67c-1.51,0-2.21,1.32-2.57,2.61h0V193.1a1.34,1.34,0,0,0-1.4-1.43,1.33,1.33,0,0,0-1.4,1.43v8.57a1.37,1.37,0,0,0,1.55,1.53,1.36,1.36,0,0,0,1.54-1.53V198.1c0-2.54.68-3.4,1.93-3.4h.56a1.41,1.41,0,0,0,1.52-1.54,1.55,1.55,0,0,0-1.69-1.49" transform="translate(379.79 -161.5)"/><path class="cls-1" d="M-284.37,191.67c-3.73,0-5.72,2.52-5.72,5.76,0,3.06,1.5,5.77,5.72,5.77s5.73-2.71,5.73-5.77a5.38,5.38,0,0,0-5.73-5.76m0,9.26c-1.84,0-2.63-1.64-2.63-3.5s.83-3.49,2.63-3.49,2.63,1.49,2.63,3.49-.78,3.5-2.63,3.5" transform="translate(379.79 -161.5)"/><path class="cls-1" d="M-267,194.82c0-2.2-2.06-3.15-5-3.15-3.18,0-4.92,1.56-4.92,2.77a1.23,1.23,0,0,0,1.32,1.18c1.23,0,1.29-1.68,3.58-1.68,1,0,2,.38,2,1.26s-.59,1.05-1.33,1.13l-1.89.21c-2.38.28-4.33,1-4.33,3.53a3.3,3.3,0,0,0,3.5,3.13,5.37,5.37,0,0,0,4.24-1.78,1.67,1.67,0,0,0,1.83,1.78,1.29,1.29,0,0,0,1.4-1.18A10.71,10.71,0,0,1-267,200Zm-3.1,4.14a2.47,2.47,0,0,1-2.73,2.23c-1.06,0-1.72-.57-1.72-1.26,0-.93.7-1.33,2-1.52l1.13-.17a2.7,2.7,0,0,0,1.33-.48Z" transform="translate(379.79 -161.5)"/><path class="cls-1" d="M-256,187.54a1.41,1.41,0,0,0-1.55,1.53v4.16h0a3.42,3.42,0,0,0-3.05-1.56c-3.27,0-4.78,2.75-4.78,5.69,0,4,2.27,5.84,4.86,5.84a3.25,3.25,0,0,0,3.27-1.93h0v.48a1.28,1.28,0,0,0,1.4,1.45c.95,0,1.4-.5,1.4-1.45V189.07a1.41,1.41,0,0,0-1.55-1.53m-3.86,13.27c-1.65-.05-2.46-1.54-2.46-3.34,0-1.43.49-3.4,2.46-3.4s2.48,1.82,2.48,3.4c0,1.74-.68,3.34-2.48,3.34" transform="translate(379.79 -161.5)"/><path class="cls-1" d="M-246.43,191.67a3.43,3.43,0,0,0-3.06,1.56h0v-4.16a1.4,1.4,0,0,0-1.55-1.53,1.4,1.4,0,0,0-1.54,1.53v12.68c0,.95.44,1.45,1.4,1.45a1.28,1.28,0,0,0,1.4-1.45v-.48h0a3.25,3.25,0,0,0,3.26,1.93c2.59,0,4.86-1.87,4.86-5.84,0-2.94-1.5-5.69-4.77-5.69m-.78,9.14c-1.81,0-2.49-1.6-2.49-3.34,0-1.58.6-3.42,2.49-3.4s2.46,2,2.46,3.4c0,1.8-.81,3.29-2.46,3.34" transform="translate(379.79 -161.5)"/><path class="cls-1" d="M-230,194.82c0-2.2-2.06-3.15-5-3.15-3.18,0-4.92,1.56-4.92,2.77a1.23,1.23,0,0,0,1.32,1.18c1.23,0,1.29-1.68,3.58-1.68,1,0,1.95.38,1.95,1.26s-.59,1.05-1.33,1.13l-1.89.21c-2.38.28-4.33,1-4.33,3.53a3.3,3.3,0,0,0,3.5,3.13,5.35,5.35,0,0,0,4.24-1.78,1.67,1.67,0,0,0,1.83,1.78,1.29,1.29,0,0,0,1.4-1.18A10.71,10.71,0,0,1-230,200Zm-3.1,4.14a2.47,2.47,0,0,1-2.73,2.23c-1.06,0-1.72-.57-1.72-1.26,0-.93.7-1.33,2-1.52l1.13-.17a2.7,2.7,0,0,0,1.33-.48Z" transform="translate(379.79 -161.5)"/><path class="cls-1" d="M-221.37,191.67a4.47,4.47,0,0,0-3.76,1.93h0v-.39c0-.93-.42-1.54-1.4-1.54s-1.4.61-1.4,1.54v8.46a1.37,1.37,0,0,0,1.55,1.53,1.37,1.37,0,0,0,1.55-1.53v-5.06a2.39,2.39,0,0,1,2.35-2.42,1.86,1.86,0,0,1,2,2.12v5.36A1.37,1.37,0,0,0-219,203.2a1.37,1.37,0,0,0,1.55-1.53v-6c0-3.1-2-4-3.9-4" transform="translate(379.79 -161.5)"/><path class="cls-1" d="M-206.69,187.54a1.41,1.41,0,0,0-1.55,1.53v4.16h0a3.43,3.43,0,0,0-3.06-1.56c-3.26,0-4.77,2.75-4.77,5.69,0,4,2.27,5.84,4.86,5.84a3.25,3.25,0,0,0,3.27-1.93h0v.48a1.28,1.28,0,0,0,1.4,1.45c.95,0,1.4-.5,1.4-1.45V189.07a1.41,1.41,0,0,0-1.55-1.53m-3.86,13.27c-1.66-.05-2.46-1.54-2.46-3.34,0-1.43.49-3.4,2.46-3.4s2.48,1.82,2.48,3.4c0,1.74-.68,3.34-2.48,3.34" transform="translate(379.79 -161.5)"/><path class="cls-2" d="M-370.4,169.93a1.85,1.85,0,0,0-2.62.22,51,51,0,0,0-6.57,9.9,1.87,1.87,0,0,0,.82,2.5,2,2,0,0,0,.84.2,1.85,1.85,0,0,0,1.66-1,47.21,47.21,0,0,1,6.09-9.18,1.86,1.86,0,0,0-.22-2.62" transform="translate(379.79 -161.5)"/><path class="cls-2" d="M-340.1,191.31a13,13,0,0,1,6-1.45,13.22,13.22,0,0,1,3.2.39,5.2,5.2,0,0,0,5-1.47,5.22,5.22,0,0,0,1.27-5.14,5.16,5.16,0,0,0-3.76-3.63,23.55,23.55,0,0,0-5.68-.69,23.45,23.45,0,0,0-17,7.27,1.53,1.53,0,0,1-1.91.19,1.51,1.51,0,0,1-.69-1.12,1.6,1.6,0,0,1,.45-1.31,26.85,26.85,0,0,1,16.4-8,5.22,5.22,0,0,0,4.66-5.23,5.25,5.25,0,0,0-1.75-3.91,5.26,5.26,0,0,0-4.1-1.33,37.16,37.16,0,0,0-29.49,20.64,1.53,1.53,0,0,1-2,.68,1.54,1.54,0,0,1-.84-.91,1.41,1.41,0,0,1,.06-1.14,40.24,40.24,0,0,1,22.18-20.06,1.85,1.85,0,0,0,1.1-2.39,1.85,1.85,0,0,0-2.39-1.1,44,44,0,0,0-24.23,21.91,5.13,5.13,0,0,0-.22,4,5.33,5.33,0,0,0,2.79,3,5.24,5.24,0,0,0,6.9-2.43,33.43,33.43,0,0,1,26.55-18.58,1.56,1.56,0,0,1,1.22.39,1.54,1.54,0,0,1,.51,1.15,1.52,1.52,0,0,1-1.32,1.53,30.51,30.51,0,0,0-18.68,9.1,5.33,5.33,0,0,0-1.49,4.33,5.28,5.28,0,0,0,2.38,3.82,5.24,5.24,0,0,0,6.6-.75A19.77,19.77,0,0,1-334.1,183a19.75,19.75,0,0,1,4.79.58,1.48,1.48,0,0,1,1.08,1,1.54,1.54,0,0,1-.38,1.53,1.47,1.47,0,0,1-1.39.44A17.05,17.05,0,0,0-341.8,188a5.24,5.24,0,0,0-2.75,3.72,5.3,5.3,0,0,0,1.27,4.49,5.29,5.29,0,0,0,3.92,1.72,5.39,5.39,0,0,0,2.43-.58,6.34,6.34,0,0,1,5.35-.15,1.85,1.85,0,0,0,2.45-.95,1.85,1.85,0,0,0-.95-2.45,10.12,10.12,0,0,0-8.52.23,1.58,1.58,0,0,1-1.91-.31,1.54,1.54,0,0,1-.38-1.33,1.48,1.48,0,0,1,.79-1.08" transform="translate(379.79 -161.5)"/><path class="cls-2" d="M-334.1,200.4a2.59,2.59,0,0,0-2.58,2.58,2.59,2.59,0,0,0,2.58,2.58,2.59,2.59,0,0,0,2.58-2.58,2.59,2.59,0,0,0-2.58-2.58" transform="translate(379.79 -161.5)"/></svg>